<svg width="168" height="40" viewBox="0 0 168 40" fill="none" xmlns="http://www.w3.org/2000/svg">
<g clip-path="url(#clip0_1_26)">
<path d="M46.5015 14.1967V10.9671C46.5015 10.0946 45.7915 9.38456 44.9189 9.38456C44.36 9.38456 43.8346 9.16715 43.4397 8.77275C43.0445 8.37695 42.8268 7.85132 42.8268 7.29273V1.60594C42.8268 0.720335 42.1064 0 41.2208 0H39.284C38.3983 0 37.678 0.720689 37.678 1.60594V4.93451C37.678 6.9994 36.0313 8.70679 34.0075 8.74084C33.0013 8.75644 32.0452 8.3773 31.3259 7.66973C30.6063 6.96181 30.2101 6.01627 30.2101 5.00722V1.60594C30.2101 0.720335 29.4893 0 28.6037 0H26.6672C25.7816 0 25.061 0.720689 25.061 1.60594V3.65806C25.061 4.03437 25.3659 4.33902 25.742 4.33902C26.1183 4.33902 26.423 4.03437 26.423 3.65806V1.60594C26.423 1.47153 26.5325 1.36193 26.6672 1.36193H28.6037C28.7386 1.36193 28.8481 1.47153 28.8481 1.60594V5.00722C28.8481 6.38441 29.3891 7.6747 30.3708 8.64046C31.3524 9.60623 32.6519 10.1226 34.0302 10.1028C36.7927 10.056 39.0399 7.73748 39.0399 4.93451V1.60594C39.0399 1.47153 39.1496 1.36193 39.284 1.36193H41.2208C41.3552 1.36193 41.4649 1.47153 41.4649 1.60594V7.29273C41.4649 8.2145 41.8237 9.08203 42.4767 9.73569C43.1297 10.3876 43.9968 10.7465 44.9189 10.7465C45.0406 10.7465 45.1395 10.8454 45.1395 10.9671V13.7807L33.9437 19.1522L22.7485 13.781V10.9671C22.7485 10.8919 22.7837 10.8408 22.8146 10.81C22.8382 10.7862 22.8898 10.7465 22.9691 10.7465C24.8736 10.7465 26.423 9.19729 26.423 7.29273V6.38192C26.423 6.00597 26.1183 5.70096 25.742 5.70096C25.3659 5.70096 25.061 6.00597 25.061 6.38192V7.29273C25.061 8.4461 24.1226 9.38456 22.9691 9.38456C22.5449 9.38456 22.1471 9.54948 21.8502 9.84811C21.5513 10.1471 21.3865 10.5447 21.3865 10.9671V14.1861C21.3862 14.2013 21.3862 14.2166 21.3865 14.2318V25.5469L17.8846 27.6458C17.3913 27.3628 16.8266 27.2103 16.2538 27.2103H12.1907V15.4466H16.2538C18.0587 15.4466 19.5271 13.9783 19.5271 12.1733C19.5271 10.3684 18.0587 8.90008 16.2538 8.90008H15.5406V8.15634C15.5406 6.68269 14.3414 5.4839 12.8678 5.4839H12.1907V4.14928C12.1907 3.37327 11.5594 2.74195 10.7834 2.74195H8.75788C7.98187 2.74195 7.35055 3.37327 7.35055 4.14928V5.4839H6.67349C5.19983 5.4839 4.00069 6.68269 4.00069 8.15634V8.90008H3.28745C2.98847 8.90008 2.69231 8.94052 2.40681 9.01997C2.04468 9.12104 1.8326 9.49664 1.93368 9.85912C2.03477 10.2212 2.41001 10.4326 2.77283 10.3319C2.93916 10.2854 3.11224 10.262 3.28745 10.262H16.2538C17.3079 10.262 18.1651 11.1192 18.1651 12.1733C18.1651 13.227 17.3079 14.0843 16.2538 14.0843H3.28745C2.23337 14.0843 1.37614 13.227 1.37614 12.1733C1.37614 12.0652 1.38536 11.9563 1.40309 11.8506C1.46587 11.4796 1.21618 11.1281 0.845551 11.0653C0.474922 11.0022 0.123089 11.2522 0.060313 11.6232C0.0298114 11.8041 0.0142059 11.9893 0.0142059 12.1733C0.0142059 13.9783 1.48254 15.4466 3.28745 15.4466H7.35055V27.2103H3.28745C1.48254 27.2103 0.0142059 28.6787 0.0142059 30.4835C0.0142059 31.3568 0.354335 32.1788 0.973233 32.7988C1.59213 33.4165 2.41426 33.7568 3.28745 33.7568H4.00105V34.5001C4.00105 35.9741 5.19982 37.1733 6.67313 37.1733H7.35055V38.508C7.35055 39.2839 7.98187 39.9153 8.75788 39.9153H10.7834C11.5594 39.9153 12.1907 39.2839 12.1907 38.508V37.1733H12.2177C12.3585 37.3582 12.5135 37.5336 12.6827 37.6986C13.5974 38.5919 14.7837 39.0466 15.9928 39.0466H40.5433C41.977 39.0466 43.1435 37.8802 43.1435 36.4462V32.4129H43.507C45.1584 32.4129 46.5015 31.0695 46.5015 29.4185V14.2201C46.5015 14.2123 46.5015 14.2045 46.5015 14.1967ZM8.71248 4.14928C8.71248 4.12446 8.73269 4.10388 8.75788 4.10388H10.7834C10.8086 4.10388 10.8288 4.12446 10.8288 4.14928V5.4839H8.71248V4.14928ZM5.36262 8.90008V8.15634C5.36262 7.43352 5.95067 6.84583 6.67349 6.84583H8.01733H8.03152H8.04535H11.4956H11.5098H11.5239H12.8678C13.5906 6.84583 14.1787 7.43352 14.1787 8.15634V8.90008H5.36262ZM28.5716 24.009C28.8759 24.009 29.1496 24.2012 29.2536 24.4872C30.0441 26.6683 32.1342 28.1339 34.4537 28.1339C36.8229 28.1339 38.9275 26.6269 39.6904 24.3838C39.7666 24.1598 39.9773 24.009 40.2143 24.009H40.6374C41.2684 24.009 41.7816 24.5222 41.7816 25.1532V33.732H32.3537L30.12 30.5314C29.905 30.2233 29.4802 30.1477 29.1719 30.3629C28.8637 30.5779 28.7882 31.0025 29.0032 31.311L30.6927 33.732H29.0588L24.8524 27.7037L26.0048 27.0127L27.4451 29.0772C27.5777 29.267 27.7891 29.3687 28.0044 29.3687C28.1388 29.3687 28.2747 29.3291 28.3931 29.2461C28.7018 29.0308 28.7773 28.6062 28.5623 28.298L27.1128 26.2205C27.498 25.7863 27.7217 25.2181 27.7217 24.625V24.009H28.5716ZM25.8112 33.732L22.5623 29.0762L23.6813 28.4055L27.3979 33.732H25.8112ZM22.5159 33.732L20.2389 30.469L21.3913 29.7784L24.1502 33.7323H22.5159V33.732ZM16.2091 30.2378C16.2439 30.3008 16.2836 30.3618 16.328 30.4197C16.7816 31.0099 17.4689 31.3259 18.1687 31.3259C18.4669 31.3259 18.7676 31.2683 19.0536 31.1499L20.8554 33.732H12.6642C12.8316 32.7746 13.4097 31.9157 14.256 31.4089L16.2091 30.2378ZM26.3598 24.1545V24.6254C26.3598 24.9833 26.1711 25.3199 25.8668 25.5075C25.8548 25.5146 25.8426 25.5217 25.831 25.5295L23.5448 26.8996C23.5331 26.9063 23.5213 26.9134 23.5097 26.9209L21.2436 28.279C21.2395 28.2813 21.2347 28.2842 21.2306 28.287L18.66 29.8278C18.2425 30.0782 17.7044 29.9756 17.4076 29.5897C17.404 29.5852 17.393 29.5706 17.3976 29.5468C17.4015 29.526 17.414 29.5163 17.4203 29.5122L18.2002 29.0446C18.2091 29.0397 18.2183 29.034 18.2272 29.0282L26.3293 24.1717C26.3396 24.1658 26.3494 24.1601 26.3598 24.1545ZM8.71248 15.4466H10.8288V27.2103H8.71248V15.4466ZM5.36298 34.5005V33.7568H9.21008C9.58603 33.7568 9.89104 33.4521 9.89104 33.0759C9.89104 32.6998 9.58603 32.3949 9.21008 32.3949H3.28745C2.77744 32.3949 2.29722 32.1963 1.93616 31.8358C1.57511 31.4737 1.37614 30.9936 1.37614 30.4835C1.37614 29.4297 2.23337 28.5722 3.28745 28.5722H16.2538C16.2815 28.5722 16.3088 28.573 16.3361 28.5741L13.5559 30.2405C12.135 31.0922 11.2526 32.6499 11.2526 34.3065C11.2526 34.759 11.3165 35.197 11.4353 35.6116C11.4367 35.6171 11.4385 35.6223 11.4399 35.6276C11.441 35.6312 11.442 35.6347 11.4431 35.6383C11.4598 35.6964 11.4778 35.754 11.497 35.8114H6.67313C5.95067 35.8114 5.36298 35.2234 5.36298 34.5005ZM10.8288 38.508C10.8288 38.5327 10.8082 38.5534 10.7834 38.5534H8.75788C8.73306 38.5534 8.71248 38.5327 8.71248 38.508V37.1733H10.8288V38.508ZM41.7816 36.4462C41.7816 37.1293 41.2261 37.6847 40.5431 37.6847C24.8355 37.6847 15.975 37.6854 15.9027 37.6837C14.3507 37.6429 13.0561 36.5501 12.7071 35.0939H22.1438C22.1498 35.0943 22.1556 35.0943 22.1616 35.0943C22.1676 35.0943 22.1736 35.0943 22.1796 35.0939H25.4387C25.4447 35.0943 25.4504 35.0943 25.4564 35.0943C25.4625 35.0943 25.4685 35.0943 25.4745 35.0939H28.6865C28.6925 35.0943 28.6985 35.0943 28.7041 35.0943C28.7101 35.0943 28.7163 35.0943 28.7223 35.0939H31.9813C31.9873 35.0943 31.9931 35.0943 31.9991 35.0943C32.0051 35.0943 32.0111 35.0943 32.0171 35.0939H41.7816V36.4462ZM43.507 31.051H43.1435V25.1532C43.1435 23.7713 42.0191 22.6471 40.6374 22.6471H40.2143C39.3938 22.6471 38.6655 23.1688 38.4009 23.9451C37.826 25.6359 36.2394 26.7716 34.4537 26.7716C32.7048 26.7716 31.1298 25.6671 30.5335 24.0232C30.2353 23.2001 29.4468 22.6471 28.5712 22.6471C27.0531 22.6862 26.4747 22.4982 25.6292 23.0039L22.7481 24.7305V15.2916L33.649 20.5216C33.7422 20.5663 33.843 20.5886 33.9437 20.5886C34.0443 20.5886 34.1451 20.5663 34.2381 20.5216L45.1392 15.2912V29.4185C45.1395 30.3186 44.4072 31.051 43.507 31.051Z" fill="white" fill-opacity="0.85"/>
<path d="M54.1283 0.72636H57.978L59.7576 20.2655H59.8302L61.7188 0.72636H66.077L67.9655 20.2655H68.0382L69.8177 0.72636H73.268L70.6894 26.1491H65.7138L63.8979 9.00691H63.8252L62.0093 26.1491H56.7069L54.1283 0.72636ZM81.0633 26.5123C79.1021 26.5123 77.6009 25.9553 76.5599 24.8416C75.5188 23.7279 74.9982 22.1541 74.9982 20.1203V6.75518C74.9982 4.72136 75.5188 3.14757 76.5599 2.03382C77.6009 0.920058 79.1021 0.363178 81.0633 0.363178C83.0245 0.363178 84.5257 0.920058 85.5668 2.03382C86.6078 3.14757 87.1284 4.72136 87.1284 6.75518V20.1203C87.1284 22.1541 86.6078 23.7279 85.5668 24.8416C84.5257 25.9553 83.0245 26.5123 81.0633 26.5123ZM81.0633 22.8805C82.4434 22.8805 83.1334 22.0451 83.1334 20.3745V6.50095C83.1334 4.83032 82.4434 3.995 81.0633 3.995C79.6832 3.995 78.9932 4.83032 78.9932 6.50095V20.3745C78.9932 22.0451 79.6832 22.8805 81.0633 22.8805ZM89.8302 0.72636H95.75C97.8082 0.72636 99.3092 1.2106 100.253 2.17909C101.198 3.12336 101.67 4.5882 101.67 6.57359V8.13527C101.67 10.7744 100.798 12.445 99.055 13.1472V13.2198C100.024 13.5104 100.701 14.1036 101.089 14.9994C101.5 15.8952 101.706 17.0938 101.706 18.5949V23.062C101.706 23.7884 101.731 24.3817 101.779 24.8416C101.827 25.2775 101.948 25.7133 102.142 26.1491H98.0744C97.9291 25.7374 97.8323 25.3501 97.7838 24.9869C97.7355 24.6237 97.7112 23.97 97.7112 23.0257V18.377C97.7112 17.2148 97.5176 16.4037 97.1301 15.9437C96.7669 15.4837 96.1254 15.2536 95.2052 15.2536H93.8252V26.1491H89.8302V0.72636ZM95.2779 11.6218C96.0769 11.6218 96.6701 11.416 97.0575 11.0044C97.4691 10.5928 97.6749 9.90275 97.6749 8.93427V6.97309C97.6749 6.05302 97.5055 5.3872 97.1664 4.97559C96.8517 4.56398 96.3433 4.35818 95.6411 4.35818H93.8252V11.6218H95.2779ZM104.478 0.72636H108.473V11.4402L113.558 0.72636H117.553L112.795 10.0601L117.625 26.1491H113.449L110.071 14.8178L108.473 18.0501V26.1491H104.478V0.72636ZM125.291 26.5123C123.33 26.5123 121.828 25.9553 120.787 24.8416C119.746 23.7279 119.226 22.1541 119.226 20.1203V6.75518C119.226 4.72136 119.746 3.14757 120.787 2.03382C121.828 0.920058 123.33 0.363178 125.291 0.363178C127.252 0.363178 128.753 0.920058 129.794 2.03382C130.835 3.14757 131.356 4.72136 131.356 6.75518V20.1203C131.356 22.1541 130.835 23.7279 129.794 24.8416C128.753 25.9553 127.252 26.5123 125.291 26.5123ZM125.291 22.8805C126.671 22.8805 127.361 22.0451 127.361 20.3745V6.50095C127.361 4.83032 126.671 3.995 125.291 3.995C123.911 3.995 123.221 4.83032 123.221 6.50095V20.3745C123.221 22.0451 123.911 22.8805 125.291 22.8805ZM139.868 26.5123C137.931 26.5123 136.455 25.9675 135.438 24.878C134.421 23.7643 133.912 22.1782 133.912 20.1203V0.72636H137.907V20.4108C137.907 21.2825 138.077 21.912 138.416 22.2994C138.779 22.6867 139.287 22.8805 139.941 22.8805C140.595 22.8805 141.091 22.6867 141.43 22.2994C141.793 21.912 141.975 21.2825 141.975 20.4108V0.72636H145.825V20.1203C145.825 22.1782 145.316 23.7643 144.299 24.878C143.282 25.9675 141.805 26.5123 139.868 26.5123ZM151.793 4.35818H147.617V0.72636H159.965V4.35818H155.788V26.1491H151.793V4.35818Z" fill="white"/>
<path d="M161.899 22.2994H165.749V26.1491H161.899V22.2994Z" fill="#F40108"/>
<path d="M59.8811 32.3232V36.863H59.1547V32.9588H57.3207V36.863H56.5943V32.9588H55.8861V32.3232H56.5943V32.069C56.5943 31.5 56.7336 31.0884 57.012 30.8341C57.2965 30.5739 57.7111 30.4437 58.2559 30.4437C58.613 30.4437 58.9308 30.48 59.2092 30.5527C59.4876 30.6193 59.7055 30.701 59.8629 30.7978L59.6178 31.3789C59.4544 31.2759 59.2606 31.2004 59.0367 31.1519C58.8128 31.1034 58.5736 31.0793 58.3194 31.0793C58.0955 31.0793 57.9168 31.1065 57.7837 31.161C57.6566 31.2095 57.5567 31.2881 57.4841 31.3971C57.4175 31.5 57.3721 31.6301 57.3479 31.7875C57.3297 31.9449 57.3207 32.1234 57.3207 32.3232H59.8811ZM62.1877 32.3232H62.8959V31.4243L63.6222 31.2155V32.3232H64.857V32.9588H63.6222V35.4738C63.6222 35.7885 63.6616 36.0126 63.7403 36.1457C63.8189 36.2728 63.9522 36.3363 64.1398 36.3363C64.2972 36.3363 64.4303 36.3213 64.5393 36.2909C64.6482 36.2546 64.7693 36.2092 64.9024 36.1548L65.0659 36.7086C64.9024 36.7872 64.7239 36.8508 64.5302 36.8993C64.3364 36.9478 64.1276 36.9719 63.9037 36.9719C63.5345 36.9719 63.2741 36.8689 63.1229 36.6632C62.9716 36.4513 62.8959 36.1003 62.8959 35.61V32.9588H62.1877V32.3232ZM70.2763 36.863V34.2753C70.2763 33.8031 70.2067 33.449 70.0674 33.213C69.9343 32.9709 69.6861 32.8498 69.3229 32.8498C69.0022 32.8498 68.7358 32.9375 68.5239 33.1131C68.3182 33.2825 68.1729 33.4975 68.0881 33.7578V36.863H67.3617V32.3232H67.8702L68.0064 32.877H68.0427C68.188 32.6833 68.3817 32.526 68.6238 32.4049C68.872 32.2778 69.1657 32.2142 69.5045 32.2142C69.7527 32.2142 69.9706 32.2446 70.1582 32.305C70.346 32.3595 70.5004 32.4594 70.6213 32.6046C70.7484 32.7499 70.8423 32.9466 70.9028 33.1948C70.9694 33.4369 71.0026 33.7456 71.0026 34.1209V36.863H70.2763ZM77.1393 36.4998C76.9577 36.645 76.7276 36.76 76.4493 36.8448C76.1769 36.9296 75.8863 36.9719 75.5776 36.9719C75.2326 36.9719 74.933 36.9174 74.6788 36.8085C74.4245 36.6935 74.2157 36.533 74.0523 36.3273C73.8888 36.1153 73.7677 35.8642 73.6891 35.5737C73.6105 35.2831 73.5711 34.9563 73.5711 34.5931C73.5711 33.8182 73.7436 33.2281 74.0886 32.8226C74.4336 32.4171 74.927 32.2142 75.5686 32.2142C75.7743 32.2142 75.9802 32.2384 76.186 32.2869C76.3917 32.3292 76.5764 32.414 76.7398 32.5411C76.9032 32.6682 77.0364 32.8498 77.1393 33.0859C77.2423 33.3159 77.2937 33.6216 77.2937 34.0029C77.2937 34.2026 77.2755 34.4236 77.2392 34.6657H74.3247C74.3247 34.9321 74.3519 35.1682 74.4064 35.3739C74.4608 35.5797 74.5457 35.7553 74.6606 35.9005C74.7755 36.0398 74.9239 36.1488 75.1055 36.2274C75.2931 36.3 75.5201 36.3363 75.7865 36.3363C75.9922 36.3363 76.1981 36.3 76.4039 36.2274C76.6096 36.1548 76.764 36.0699 76.8669 35.9732L77.1393 36.4998ZM75.5776 32.8498C75.2204 32.8498 74.933 32.9437 74.7151 33.1313C74.5032 33.3188 74.376 33.6397 74.3337 34.0937H76.5855C76.5855 33.6337 76.4978 33.3129 76.3222 33.1313C76.1466 32.9437 75.8985 32.8498 75.5776 32.8498ZM81.9317 35.6281C81.9317 35.4465 81.8772 35.3044 81.7682 35.2014C81.6593 35.0984 81.5231 35.0138 81.3597 34.9472C81.2022 34.8745 81.0266 34.8079 80.8331 34.7474C80.6453 34.6808 80.4699 34.5991 80.3064 34.5023C80.149 34.3993 80.0159 34.2693 79.9069 34.1119C79.798 33.9544 79.7435 33.7427 79.7435 33.4763C79.7435 33.0405 79.8675 32.7227 80.1158 32.5229C80.3638 32.3172 80.7088 32.2142 81.1508 32.2142C81.4777 32.2142 81.7501 32.2446 81.968 32.305C82.1919 32.3595 82.3857 32.4261 82.5491 32.5048L82.3766 33.104C82.2373 33.0374 82.0679 32.98 81.8681 32.9315C81.6744 32.877 81.4655 32.8498 81.2416 32.8498C80.9752 32.8498 80.7786 32.8952 80.6515 32.986C80.5303 33.0768 80.4699 33.2342 80.4699 33.4581C80.4699 33.6156 80.5243 33.7396 80.6333 33.8304C80.7423 33.9152 80.8754 33.9938 81.0328 34.0665C81.1962 34.1331 81.3717 34.1996 81.5594 34.2662C81.753 34.3328 81.9286 34.4206 82.086 34.5295C82.2495 34.6385 82.3857 34.7777 82.4946 34.9472C82.6036 35.1106 82.658 35.3285 82.658 35.6009C82.658 35.7947 82.6246 35.9762 82.5582 36.1457C82.4975 36.3151 82.4007 36.4604 82.2676 36.5815C82.1343 36.7026 81.968 36.7963 81.7682 36.863C81.5745 36.9356 81.3444 36.9719 81.0782 36.9719C80.7332 36.9719 80.4395 36.9387 80.1975 36.872C79.9552 36.8054 79.7526 36.7268 79.5892 36.636L79.8071 36.0186C79.9462 36.0972 80.1278 36.1698 80.3518 36.2365C80.5757 36.3031 80.8027 36.3363 81.0328 36.3363C81.293 36.3363 81.5078 36.285 81.6775 36.182C81.8469 36.079 81.9317 35.8945 81.9317 35.6281ZM87.2514 35.6281C87.2514 35.4465 87.1969 35.3044 87.088 35.2014C86.979 35.0984 86.8428 35.0138 86.6794 34.9472C86.5219 34.8745 86.3463 34.8079 86.1528 34.7474C85.965 34.6808 85.7896 34.5991 85.6261 34.5023C85.4687 34.3993 85.3356 34.2693 85.2266 34.1119C85.1177 33.9544 85.0632 33.7427 85.0632 33.4763C85.0632 33.0405 85.1872 32.7227 85.4355 32.5229C85.6835 32.3172 86.0286 32.2142 86.4705 32.2142C86.7974 32.2142 87.0698 32.2446 87.2877 32.305C87.5116 32.3595 87.7054 32.4261 87.8688 32.5048L87.6963 33.104C87.557 33.0374 87.3876 32.98 87.1878 32.9315C86.9941 32.877 86.7852 32.8498 86.5613 32.8498C86.2949 32.8498 86.0983 32.8952 85.9712 32.986C85.85 33.0768 85.7896 33.2342 85.7896 33.4581C85.7896 33.6156 85.8441 33.7396 85.953 33.8304C86.062 33.9152 86.1951 33.9938 86.3525 34.0665C86.5159 34.1331 86.6914 34.1996 86.8791 34.2662C87.0727 34.3328 87.2483 34.4206 87.4057 34.5295C87.5692 34.6385 87.7054 34.7777 87.8143 34.9472C87.9233 35.1106 87.9777 35.3285 87.9777 35.6009C87.9777 35.7947 87.9443 35.9762 87.8779 36.1457C87.8172 36.3151 87.7204 36.4604 87.5873 36.5815C87.454 36.7026 87.2877 36.7963 87.088 36.863C86.8942 36.9356 86.6641 36.9719 86.3979 36.9719C86.0529 36.9719 85.7593 36.9387 85.5172 36.872C85.275 36.8054 85.0723 36.7268 84.9089 36.636L85.1268 36.0186C85.2659 36.0972 85.4475 36.1698 85.6715 36.2365C85.8954 36.3031 86.1224 36.3363 86.3525 36.3363C86.6127 36.3363 86.8276 36.285 86.9972 36.182C87.1666 36.079 87.2514 35.8945 87.2514 35.6281ZM97.5885 36.5633C97.4069 36.6964 97.1919 36.7963 96.9438 36.863C96.6956 36.9356 96.4353 36.9719 96.163 36.9719C95.8118 36.9719 95.5152 36.9174 95.2732 36.8085C95.0309 36.6935 94.8312 36.533 94.6739 36.3273C94.5225 36.1153 94.4106 35.8642 94.338 35.5737C94.2713 35.2771 94.2381 34.9503 94.2381 34.5931C94.2381 33.8244 94.4075 33.2371 94.7465 32.8316C95.0854 32.42 95.5728 32.2142 96.2084 32.2142C96.4989 32.2142 96.7441 32.2384 96.9438 32.2869C97.1495 32.3292 97.3342 32.3927 97.4977 32.4775L97.2888 33.104C97.1495 33.0254 96.9952 32.9647 96.8258 32.9224C96.6562 32.8739 96.4746 32.8498 96.281 32.8498C95.4213 32.8498 94.9917 33.4309 94.9917 34.5931C94.9917 34.8231 95.0128 35.044 95.0553 35.2559C95.1036 35.4616 95.1793 35.6463 95.2822 35.8097C95.3912 35.9672 95.5303 36.0943 95.6999 36.1911C95.8753 36.2879 96.0903 36.3363 96.3445 36.3363C96.5625 36.3363 96.756 36.3031 96.9256 36.2365C97.1011 36.1698 97.2434 36.0943 97.3524 36.0095L97.5885 36.5633ZM100.895 35.7462C100.895 35.9581 100.931 36.1094 101.004 36.2002C101.076 36.2909 101.179 36.3363 101.313 36.3363C101.391 36.3363 101.476 36.3303 101.567 36.3182C101.658 36.306 101.76 36.2788 101.875 36.2365L101.957 36.8085C101.86 36.857 101.724 36.8962 101.549 36.9265C101.379 36.9568 101.231 36.9719 101.104 36.9719C100.831 36.9719 100.607 36.8962 100.432 36.7449C100.256 36.5875 100.168 36.3242 100.168 35.955V30.5073H100.895V35.7462ZM103.982 34.5931C103.982 33.8244 104.151 33.2371 104.49 32.8316C104.835 32.42 105.329 32.2142 105.97 32.2142C106.309 32.2142 106.603 32.2718 106.851 32.3867C107.105 32.4957 107.314 32.656 107.478 32.868C107.641 33.0737 107.762 33.325 107.841 33.6216C107.919 33.9121 107.959 34.2359 107.959 34.5931C107.959 35.3617 107.786 35.9519 107.441 36.3636C107.102 36.7691 106.612 36.9719 105.97 36.9719C105.631 36.9719 105.335 36.9174 105.081 36.8085C104.832 36.6935 104.627 36.533 104.463 36.3273C104.3 36.1153 104.179 35.8642 104.1 35.5737C104.021 35.2771 103.982 34.9503 103.982 34.5931ZM104.736 34.5931C104.736 34.8231 104.757 35.044 104.799 35.2559C104.848 35.4678 104.92 35.6523 105.017 35.8097C105.114 35.9672 105.241 36.0943 105.398 36.1911C105.556 36.2879 105.746 36.3363 105.97 36.3363C106.793 36.3423 107.205 35.7612 107.205 34.5931C107.205 34.357 107.181 34.1331 107.133 33.9212C107.09 33.7093 107.02 33.5248 106.924 33.3673C106.827 33.2099 106.7 33.0859 106.542 32.9951C106.385 32.8983 106.194 32.8498 105.97 32.8498C105.147 32.8438 104.736 33.4249 104.736 34.5931ZM110.003 32.3232H110.711V31.4243L111.437 31.2155V32.3232H112.672V32.9588H111.437V35.4738C111.437 35.7885 111.477 36.0126 111.556 36.1457C111.634 36.2728 111.767 36.3363 111.955 36.3363C112.112 36.3363 112.246 36.3213 112.355 36.2909C112.463 36.2546 112.584 36.2092 112.718 36.1548L112.881 36.7086C112.718 36.7872 112.539 36.8508 112.345 36.8993C112.152 36.9478 111.943 36.9719 111.719 36.9719C111.35 36.9719 111.089 36.8689 110.938 36.6632C110.787 36.4513 110.711 36.1003 110.711 35.61V32.9588H110.003V32.3232ZM118.092 36.863V34.2753C118.092 34.0392 118.076 33.8335 118.046 33.6579C118.022 33.4763 117.973 33.3279 117.901 33.213C117.828 33.0919 117.728 33.0011 117.601 32.9406C117.48 32.8801 117.32 32.8498 117.12 32.8498C116.835 32.8498 116.578 32.9437 116.348 33.1313C116.118 33.3129 115.97 33.5489 115.903 33.8395V36.863H115.177V30.5073H115.903V32.8316H115.94C116.097 32.6441 116.285 32.4957 116.503 32.3867C116.726 32.2718 117.002 32.2142 117.329 32.2142C117.583 32.2142 117.804 32.2446 117.992 32.305C118.179 32.3595 118.334 32.4594 118.455 32.6046C118.582 32.7499 118.673 32.9466 118.727 33.1948C118.788 33.4369 118.818 33.7456 118.818 34.1209V36.863H118.092ZM121.795 32.3232H122.521V36.863H121.795V32.3232ZM121.641 30.9431C121.641 30.8038 121.686 30.6858 121.777 30.589C121.874 30.486 121.995 30.4346 122.14 30.4346C122.285 30.4346 122.409 30.486 122.512 30.589C122.615 30.6858 122.667 30.8038 122.667 30.9431C122.667 31.0824 122.615 31.1973 122.512 31.2881C122.409 31.3789 122.285 31.4243 122.14 31.4243C121.995 31.4243 121.874 31.3789 121.777 31.2881C121.686 31.1973 121.641 31.0824 121.641 30.9431ZM128.483 36.863V34.2753C128.483 33.8031 128.413 33.449 128.274 33.213C128.141 32.9709 127.893 32.8498 127.529 32.8498C127.208 32.8498 126.942 32.9375 126.73 33.1131C126.524 33.2825 126.379 33.4975 126.295 33.7578V36.863H125.568V32.3232H126.077L126.213 32.877H126.249C126.394 32.6833 126.588 32.526 126.83 32.4049C127.078 32.2778 127.372 32.2142 127.711 32.2142C127.959 32.2142 128.177 32.2446 128.365 32.305C128.552 32.3595 128.707 32.4594 128.828 32.6046C128.955 32.7499 129.049 32.9466 129.109 33.1948C129.176 33.4369 129.209 33.7456 129.209 34.1209V36.863H128.483ZM135.509 37.0718C135.509 37.6589 135.352 38.0918 135.037 38.3702C134.728 38.6485 134.268 38.7878 133.657 38.7878C133.294 38.7878 133 38.7637 132.776 38.7152C132.558 38.6729 132.371 38.6153 132.213 38.5427L132.404 37.9253C132.543 37.9797 132.697 38.0311 132.867 38.0796C133.036 38.1281 133.257 38.1523 133.53 38.1523C133.784 38.1523 133.99 38.1281 134.147 38.0796C134.31 38.0373 134.441 37.9616 134.537 37.8526C134.634 37.7497 134.701 37.6135 134.737 37.444C134.774 37.2806 134.792 37.084 134.792 36.8539V36.4181H134.755C134.634 36.5937 134.48 36.7299 134.292 36.8266C134.105 36.9174 133.86 36.9628 133.557 36.9628C132.946 36.9628 132.495 36.7722 132.204 36.3908C131.92 36.0095 131.777 35.4162 131.777 34.6112C131.777 33.8364 131.962 33.2493 132.331 32.8498C132.701 32.4443 133.245 32.2415 133.965 32.2415C134.31 32.2415 134.604 32.2687 134.846 32.3232C135.094 32.3777 135.315 32.4412 135.509 32.5139V37.0718ZM133.684 36.3273C133.993 36.3273 134.235 36.2515 134.41 36.1003C134.586 35.9428 134.71 35.7008 134.783 35.3739V33.0495C134.541 32.9346 134.232 32.877 133.857 32.877C133.445 32.877 133.121 33.0163 132.885 33.2947C132.649 33.5731 132.531 34.0089 132.531 34.6021C132.531 34.8564 132.552 35.0894 132.594 35.3013C132.637 35.5132 132.703 35.6948 132.794 35.846C132.885 35.9973 133.003 36.1153 133.148 36.2002C133.294 36.285 133.472 36.3273 133.684 36.3273ZM144.323 35.6281C144.323 35.4465 144.268 35.3044 144.159 35.2014C144.05 35.0984 143.914 35.0138 143.751 34.9472C143.593 34.8745 143.418 34.8079 143.224 34.7474C143.036 34.6808 142.861 34.5991 142.697 34.5023C142.54 34.3993 142.407 34.2693 142.298 34.1119C142.189 33.9544 142.135 33.7427 142.135 33.4763C142.135 33.0405 142.259 32.7227 142.507 32.5229C142.755 32.3172 143.1 32.2142 143.542 32.2142C143.869 32.2142 144.141 32.2446 144.359 32.305C144.583 32.3595 144.777 32.4261 144.94 32.5048L144.768 33.104C144.628 33.0374 144.459 32.98 144.259 32.9315C144.065 32.877 143.857 32.8498 143.633 32.8498C143.366 32.8498 143.17 32.8952 143.042 32.986C142.921 33.0768 142.861 33.2342 142.861 33.4581C142.861 33.6156 142.915 33.7396 143.024 33.8304C143.133 33.9152 143.266 33.9938 143.424 34.0665C143.587 34.1331 143.763 34.1996 143.95 34.2662C144.144 34.3328 144.32 34.4206 144.477 34.5295C144.64 34.6385 144.777 34.7777 144.886 34.9472C144.995 35.1106 145.049 35.3285 145.049 35.6009C145.049 35.7947 145.016 35.9762 144.949 36.1457C144.889 36.3151 144.792 36.4604 144.659 36.5815C144.526 36.7026 144.359 36.7963 144.159 36.863C143.965 36.9356 143.736 36.9719 143.469 36.9719C143.124 36.9719 142.831 36.9387 142.588 36.872C142.346 36.8054 142.144 36.7268 141.98 36.636L142.198 36.0186C142.337 36.0972 142.519 36.1698 142.743 36.2365C142.967 36.3031 143.194 36.3363 143.424 36.3363C143.684 36.3363 143.899 36.285 144.068 36.182C144.238 36.079 144.323 35.8945 144.323 35.6281ZM147.046 32.3232H147.754V31.4243L148.48 31.2155V32.3232H149.715V32.9588H148.48V35.4738C148.48 35.7885 148.519 36.0126 148.598 36.1457C148.677 36.2728 148.81 36.3363 148.998 36.3363C149.155 36.3363 149.288 36.3213 149.397 36.2909C149.506 36.2546 149.627 36.2092 149.76 36.1548L149.924 36.7086C149.76 36.7872 149.582 36.8508 149.388 36.8993C149.194 36.9478 148.986 36.9719 148.762 36.9719C148.392 36.9719 148.132 36.8689 147.981 36.6632C147.829 36.4513 147.754 36.1003 147.754 35.61V32.9588H147.046V32.3232ZM151.868 34.5931C151.868 33.8244 152.037 33.2371 152.376 32.8316C152.721 32.42 153.215 32.2142 153.856 32.2142C154.195 32.2142 154.489 32.2718 154.737 32.3867C154.991 32.4957 155.2 32.656 155.364 32.868C155.527 33.0737 155.648 33.325 155.727 33.6216C155.805 33.9121 155.845 34.2359 155.845 34.5931C155.845 35.3617 155.672 35.9519 155.327 36.3636C154.988 36.7691 154.498 36.9719 153.856 36.9719C153.517 36.9719 153.221 36.9174 152.967 36.8085C152.718 36.6935 152.513 36.533 152.349 36.3273C152.186 36.1153 152.065 35.8642 151.986 35.5737C151.907 35.2771 151.868 34.9503 151.868 34.5931ZM152.622 34.5931C152.622 34.8231 152.643 35.044 152.685 35.2559C152.734 35.4678 152.806 35.6523 152.903 35.8097C153 35.9672 153.127 36.0943 153.284 36.1911C153.442 36.2879 153.632 36.3363 153.856 36.3363C154.68 36.3423 155.091 35.7612 155.091 34.5931C155.091 34.357 155.067 34.1331 155.019 33.9212C154.976 33.7093 154.907 33.5248 154.81 33.3673C154.713 33.2099 154.586 33.0859 154.428 32.9951C154.271 32.8983 154.08 32.8498 153.856 32.8498C153.033 32.8438 152.622 33.4249 152.622 34.5931ZM160.631 33.0223C160.449 32.9618 160.277 32.9315 160.113 32.9315C159.853 32.9315 159.647 33.0041 159.496 33.1494C159.345 33.2887 159.251 33.4672 159.215 33.6851V36.863H158.488V32.3232H158.997L159.133 32.877H159.169C159.284 32.6713 159.42 32.5139 159.578 32.4049C159.741 32.29 159.947 32.2324 160.195 32.2324C160.371 32.2324 160.567 32.2627 160.785 32.3232L160.631 33.0223ZM166.386 36.4998C166.204 36.645 165.974 36.76 165.696 36.8448C165.424 36.9296 165.133 36.9719 164.824 36.9719C164.479 36.9719 164.18 36.9174 163.925 36.8085C163.671 36.6935 163.462 36.533 163.299 36.3273C163.136 36.1153 163.014 35.8642 162.936 35.5737C162.857 35.2831 162.818 34.9563 162.818 34.5931C162.818 33.8182 162.99 33.2281 163.335 32.8226C163.68 32.4171 164.174 32.2142 164.815 32.2142C165.021 32.2142 165.227 32.2384 165.433 32.2869C165.638 32.3292 165.823 32.414 165.986 32.5411C166.15 32.6682 166.283 32.8498 166.386 33.0859C166.489 33.3159 166.54 33.6216 166.54 34.0029C166.54 34.2026 166.522 34.4236 166.486 34.6657H163.571C163.571 34.9321 163.599 35.1682 163.653 35.3739C163.708 35.5797 163.792 35.7553 163.907 35.9005C164.022 36.0398 164.171 36.1488 164.352 36.2274C164.54 36.3 164.767 36.3363 165.033 36.3363C165.239 36.3363 165.445 36.3 165.651 36.2274C165.856 36.1548 166.011 36.0699 166.114 35.9732L166.386 36.4998ZM164.824 32.8498C164.467 32.8498 164.18 32.9437 163.962 33.1313C163.75 33.3188 163.623 33.6397 163.58 34.0937H165.832C165.832 33.6337 165.744 33.3129 165.569 33.1313C165.393 32.9437 165.145 32.8498 164.824 32.8498Z" fill="white" fill-opacity="0.7"/>
</g>
<defs>
<clipPath id="clip0_1_26">
<rect width="167.972" height="39.95" fill="white" transform="translate(0.0142059)"/>
</clipPath>
</defs>
</svg>
